<svg viewBox="0 0 124 28" fill="none" xmlns="http://www.w3.org/2000/svg"><path d="M.42 9v-8.4h.87v6.96l5.38-6.96h.8v8.4h-.87v-6.95l-5.38 6.95h-.8Zm9.68 0v-6.3h.85v2.78h3.98v-2.78h.85v6.3h-.85v-2.78h-3.98v2.78h-.85Zm9.3 0v-5.78l.22.22h-2.6v-.74h5.62v.74h-2.6l.21-.22v5.78h-.85Zm6.88.06c-.66 0-1.23-.14-1.73-.4a3.06 3.06 0 0 1-1.58-2.82c0-.62.13-1.17.4-1.65a2.99 2.99 0 0 1 2.68-1.55 3 3 0 0 1 1.57.4c.47.27.83.65 1.1 1.14a3.4 3.4 0 0 1 .38 1.8v.13h-5.48v-.64h5.02l-.33.25a2.41 2.41 0 0 0-1.1-2.05 2.2 2.2 0 0 0-1.16-.3c-.43 0-.82.1-1.16.3-.35.2-.61.48-.8.84-.2.36-.3.77-.3 1.24v.13c0 .48.1.9.32 1.27.21.36.5.65.89.85.38.2.82.3 1.3.3.39 0 .74-.06 1.07-.2.34-.14.63-.34.87-.62l.48.55c-.28.33-.64.59-1.06.77a3.5 3.5 0 0 1-1.38.26Zm7.97 0c-.54 0-1.04-.12-1.48-.37a2.78 2.78 0 0 1-1.05-1.1 3.68 3.68 0 0 1-.39-1.75c0-.68.13-1.26.39-1.74.25-.48.6-.84 1.04-1.09.44-.25.94-.37 1.49-.37.6 0 1.14.14 1.6.4.49.27.86.65 1.14 1.14.27.48.4 1.03.4 1.66 0 .64-.13 1.2-.4 1.68a3 3 0 0 1-1.13 1.13c-.47.27-1.01.41-1.61.41Zm-3.25 2.27v-8.63h.81v1.9l-.08 1.26.12 1.27v4.2h-.85Zm3.19-3.03c.45 0 .85-.1 1.2-.3.35-.2.63-.5.84-.86.2-.38.31-.8.31-1.3 0-.48-.1-.91-.31-1.28a2.3 2.3 0 0 0-2.04-1.18 2.3 2.3 0 0 0-2.05 1.18c-.2.37-.3.8-.3 1.28 0 .5.1.92.3 1.3.2.37.49.66.84.86.36.2.76.3 1.2.3Zm5.03.7v-6.3h.86v2.78h3.97v-2.78h.85v6.3h-.85v-2.78h-3.97v2.78h-.86Zm10.8.06c-.65 0-1.23-.14-1.73-.4a3.06 3.06 0 0 1-1.58-2.82c0-.62.13-1.17.4-1.65a2.99 2.99 0 0 1 2.68-1.55 3 3 0 0 1 1.58.4c.46.27.82.65 1.09 1.14a3.4 3.4 0 0 1 .38 1.8v.13h-5.48v-.64h5.03l-.34.25a2.41 2.41 0 0 0-1.1-2.05 2.2 2.2 0 0 0-1.16-.3c-.43 0-.82.1-1.16.3-.34.2-.61.48-.8.84-.2.36-.3.77-.3 1.24v.13a2.27 2.27 0 0 0 1.21 2.12c.38.2.82.3 1.3.3.39 0 .75-.06 1.07-.2.34-.14.63-.34.87-.62l.48.55c-.28.33-.63.59-1.06.77a3.5 3.5 0 0 1-1.38.26Zm5.64-.06v-5.78l.21.22h-2.6v-.74h5.63v.74h-2.6l.21-.22v5.78h-.85Zm3.7-2.88v-.74h3.15v.74h-3.14Zm5.08 2.88v-6.3h.87l2.85 4.84h-.36l2.9-4.84h.8v6.3h-.78v-5.33l.15.07-2.7 4.5h-.4l-2.73-4.54.18-.04v5.34h-.78Zm13.4 0v-1.4l-.04-.22v-2.33c0-.53-.15-.95-.46-1.23-.3-.3-.74-.44-1.33-.44a3.33 3.33 0 0 0-2.1.75l-.38-.64c.32-.27.7-.48 1.15-.62.45-.15.92-.23 1.41-.23.82 0 1.45.2 1.89.61.45.4.67 1.01.67 1.84v3.91h-.82Zm-2.18.06a3.1 3.1 0 0 1-1.23-.23 1.86 1.86 0 0 1-.8-.65 1.7 1.7 0 0 1-.27-.96c0-.32.07-.62.23-.88.16-.28.41-.5.76-.65.36-.17.84-.25 1.44-.25h2.18v.63h-2.15c-.6 0-1.03.11-1.27.33-.24.21-.35.48-.35.8 0 .36.14.65.42.86.28.22.67.33 1.17.33.48 0 .9-.11 1.24-.33.35-.22.6-.54.77-.96l.2.6a2 2 0 0 1-.85.99c-.4.25-.89.37-1.49.37Zm5.26-.06v-6.3h4.46v.74h-3.82l.21-.21v5.77h-.85Zm9.6 0v-1.4l-.03-.22v-2.33c0-.53-.15-.95-.46-1.23-.3-.3-.74-.44-1.33-.44a3.33 3.33 0 0 0-2.1.75l-.38-.64c.32-.27.7-.48 1.15-.62.45-.15.92-.23 1.42-.23.81 0 1.44.2 1.88.61.45.4.67 1.01.67 1.84v3.91h-.81Zm-2.17.06a3.1 3.1 0 0 1-1.23-.23 1.86 1.86 0 0 1-.8-.65 1.7 1.7 0 0 1-.27-.96c0-.32.08-.62.23-.88.16-.28.41-.5.77-.65.36-.17.84-.25 1.44-.25h2.17v.63h-2.15c-.6 0-1.03.11-1.27.33-.23.21-.35.48-.35.8 0 .36.14.65.42.86.28.22.67.33 1.18.33.48 0 .89-.11 1.23-.33.35-.22.61-.54.77-.96l.2.6a2 2 0 0 1-.85.99c-.39.25-.89.37-1.49.37Zm6.82.01c-.45 0-.9-.06-1.35-.19a3.52 3.52 0 0 1-1.2-.59l.29-.63c.3.22.65.4 1.05.51.4.11.8.17 1.19.17.4 0 .73-.06 1.02-.17.29-.1.51-.25.67-.43.16-.18.24-.4.24-.62 0-.34-.15-.6-.45-.78-.3-.2-.72-.3-1.25-.3h-1.08v-.62h1.02c.3 0 .59-.04.83-.12.24-.08.42-.2.55-.34.13-.16.2-.34.2-.54a.79.79 0 0 0-.24-.58 1.4 1.4 0 0 0-.63-.36 3.27 3.27 0 0 0-.93-.12 4.44 4.44 0 0 0-1.97.52l-.24-.66a5.34 5.34 0 0 1 2.2-.6c.5 0 .96.05 1.36.19.4.13.73.33.97.59.24.24.36.54.36.9 0 .3-.1.58-.29.81-.2.23-.45.41-.77.54-.32.13-.68.2-1.1.2l.05-.23c.72 0 1.28.14 1.68.42.4.28.6.66.6 1.14 0 .37-.12.7-.36 1-.25.27-.59.5-1.01.65-.42.16-.89.24-1.4.24Zm4.72-.07v-6.3h.85v5l4.22-5h.75v6.3h-.85v-5.02l-4.2 5.02h-.77Zm8.26 0v-6.3h.85v2.78h3.98v-2.78h.85v6.3h-.85v-2.78h-3.98v2.78h-.85Zm-103.32 16-2.59-3.12.7-.42 2.9 3.54h-1Zm-4.62 0v-6.3h.85v6.3h-.85Zm.59-2.8v-.74h2.03v.73h-2.03Zm2.22-.26-.8-.12 2.52-3.12h.92l-2.64 3.24Zm6.53 3.12c-.6 0-1.15-.14-1.64-.4a3.12 3.12 0 0 1-1.56-2.82c0-.63.14-1.18.42-1.66.28-.48.66-.86 1.14-1.13a3.3 3.3 0 0 1 1.64-.41c.63 0 1.18.14 1.66.4.49.28.87.66 1.14 1.14.28.48.42 1.03.42 1.66a3.3 3.3 0 0 1-.42 1.67 3 3 0 0 1-1.14 1.14c-.49.27-1.04.41-1.66.41Zm0-.76c.46 0 .86-.1 1.22-.3.35-.2.62-.5.82-.86.21-.38.32-.8.32-1.3s-.1-.92-.32-1.3c-.2-.36-.47-.64-.82-.84a2.34 2.34 0 0 0-1.2-.32 2.31 2.31 0 0 0-2.04 1.17c-.21.37-.32.8-.32 1.3 0 .48.1.91.32 1.29.2.37.48.66.84.86.35.2.74.3 1.18.3Zm8.58.77h-.2a4.55 4.55 0 0 1-2.92-.85 2.89 2.89 0 0 1-1.04-2.39c0-1.01.34-1.8 1.04-2.35a4.7 4.7 0 0 1 2.96-.85h.18c1.28 0 2.28.29 3 .85a2.8 2.8 0 0 1 1.06 2.35c0 1.04-.36 1.84-1.08 2.4-.71.56-1.71.84-3 .84Zm-.01-.74c.71 0 1.3-.1 1.79-.29.48-.2.84-.48 1.09-.85.25-.37.37-.82.37-1.36 0-.52-.12-.96-.37-1.32a2.3 2.3 0 0 0-1.1-.84 4.84 4.84 0 0 0-1.78-.29h-.13c-.7 0-1.28.1-1.76.3-.47.2-.82.47-1.06.83-.24.36-.36.8-.36 1.32 0 .53.12.98.36 1.35.24.36.6.65 1.08.85.47.19 1.05.29 1.74.3h.13Zm-.46 3v-11.23h.83v11.23h-.83Zm9.05-2.27c-.65 0-1.23-.14-1.73-.4a3.06 3.06 0 0 1-1.58-2.82c0-.62.13-1.17.4-1.65a2.99 2.99 0 0 1 2.68-1.55 3 3 0 0 1 1.58.4c.46.27.82.65 1.09 1.14a3.4 3.4 0 0 1 .38 1.8v.13h-5.48v-.64h5.03l-.34.25a2.41 2.41 0 0 0-1.1-2.05 2.2 2.2 0 0 0-1.16-.3c-.43 0-.82.1-1.16.3-.34.2-.61.48-.8.84-.2.36-.3.77-.3 1.24v.13a2.27 2.27 0 0 0 1.21 2.12c.38.2.82.3 1.3.3.4 0 .75-.06 1.07-.2.34-.14.63-.34.87-.62l.48.55c-.28.33-.63.59-1.06.77a3.5 3.5 0 0 1-1.38.26Zm4.72-.06v-6.3h.85v5l4.21-5h.76v6.3h-.85v-5.02l-4.2 5.02h-.77Zm2.86-7.21c-.53 0-.96-.13-1.29-.4a1.51 1.51 0 0 1-.5-1.16h.61c0 .32.12.57.34.75.21.19.5.28.84.28.34 0 .62-.1.84-.28a.96.96 0 0 0 .34-.75h.62c-.01.5-.18.89-.5 1.16a2 2 0 0 1-1.3.4Zm5.4 7.21v-6.3h.85v2.78h3.98v-2.78h.85v6.3h-.85v-2.78h-3.98v2.78h-.85Zm14.24 0v-6.3h.86v6.3h-.86Zm-3.49-4.08c.8 0 1.4.18 1.81.53.42.34.63.84.63 1.49 0 .67-.23 1.18-.67 1.54-.45.36-1.1.54-1.92.53l-2.5-.01v-6.3h.85v2.2l1.8.02Zm-.21 3.44c.59.01 1.03-.1 1.33-.34.3-.25.45-.61.45-1.08 0-.48-.14-.82-.44-1.04-.3-.22-.74-.34-1.34-.34l-1.59-.03v2.81l1.59.02Zm5.95.64 2.66-3.46v.42l-2.54-3.26h.96l2.08 2.7-.36-.01 2.07-2.69h.94l-2.56 3.3.01-.46 2.7 3.46h-.98l-2.2-2.88.34.05-2.16 2.83h-.96Zm10.49 0v-6.3h.85v2.78h3.97v-2.78h.86v6.3h-.86v-2.78h-3.97v2.78h-.85Zm12 0v-1.4l-.03-.22v-2.33c0-.53-.15-.95-.45-1.23-.3-.3-.74-.44-1.34-.44a3.33 3.33 0 0 0-2.1.75l-.38-.64c.32-.27.7-.48 1.15-.62.45-.15.92-.23 1.42-.23.81 0 1.44.2 1.88.61.45.4.67 1.01.67 1.84v3.91h-.81Zm-2.16.06a3.1 3.1 0 0 1-1.24-.23c-.34-.16-.6-.37-.8-.65a1.7 1.7 0 0 1-.27-.96c0-.32.08-.62.23-.88.16-.28.42-.5.77-.65.36-.17.84-.25 1.44-.25h2.17v.63h-2.15c-.6 0-1.03.11-1.27.33-.23.21-.35.48-.35.8 0 .36.14.65.42.86.28.22.67.33 1.18.33.48 0 .9-.11 1.23-.33.36-.22.61-.54.77-.96l.2.6a2 2 0 0 1-.85.99c-.39.25-.88.37-1.48.37Zm5.25-.06v-6.3h5.67v6.3h-.86v-5.78l.22.22h-4.4l.22-.22v5.78h-.85Zm8.09 0v-6.3h.85v5l4.21-5h.76v6.3h-.85v-5.02l-4.2 5.02h-.77Zm9.46 0v-5.78l.22.22h-2.6v-.74h5.62v.74h-2.6l.21-.22v5.78h-.85Zm9.1 0-2.6-3.12.7-.42 2.9 3.54h-1Zm-4.63 0v-6.3h.85v6.3h-.85Zm.59-2.8v-.74h2.03v.73h-2.03Zm2.22-.26-.8-.12 2.52-3.12h.92l-2.64 3.24Zm6.53 3.12c-.6 0-1.15-.14-1.64-.4a3.12 3.12 0 0 1-1.56-2.82c0-.63.14-1.18.42-1.66.28-.48.66-.86 1.14-1.13a3.3 3.3 0 0 1 1.64-.41c.63 0 1.18.14 1.66.4.49.28.87.66 1.14 1.14.28.48.42 1.03.42 1.66a3.3 3.3 0 0 1-.42 1.67 3 3 0 0 1-1.14 1.14c-.49.27-1.04.41-1.66.41Zm0-.76c.46 0 .86-.1 1.22-.3.35-.2.62-.5.82-.86.21-.38.32-.8.32-1.3s-.1-.92-.32-1.3c-.2-.36-.47-.64-.82-.84a2.34 2.34 0 0 0-1.2-.32 2.31 2.31 0 0 0-2.04 1.17c-.21.37-.32.8-.32 1.3 0 .48.1.91.32 1.29.2.37.48.66.84.86.35.2.74.3 1.18.3Zm5.04.7v-6.3h2.78a3 3 0 0 1 1.69.4c.41.28.62.68.62 1.2 0 .52-.2.92-.59 1.2-.4.27-.9.4-1.55.4l.17-.25c.75 0 1.3.14 1.66.42.35.28.53.69.53 1.21 0 .55-.2.97-.6 1.28-.4.3-1 .44-1.84.44h-2.87Zm.83-.67h2c.54 0 .94-.09 1.22-.25.28-.18.42-.46.42-.84 0-.39-.13-.67-.38-.84-.25-.18-.64-.27-1.17-.27h-2.1v2.2Zm0-2.83h1.9c.48 0 .86-.1 1.11-.28a.9.9 0 0 0 .4-.8.89.89 0 0 0-.4-.8 1.97 1.97 0 0 0-1.11-.26h-1.9v2.14Z" fill="#333"/></svg>