<svg width="124" height="28" viewBox="0 0 124 28" fill="none" xmlns="http://www.w3.org/2000/svg">
<path d="M0.416 9V0.599999H1.292V7.56L6.668 0.599999H7.472V9H6.596V2.052L1.22 9H0.416ZM10.1026 9V2.7H10.9546V5.484H14.9266V2.7H15.7786V9H14.9266V6.216H10.9546V9H10.1026ZM19.4003 9V3.216L19.6163 3.444H17.0123V2.7H22.6403V3.444H20.0363L20.2523 3.216V9H19.4003ZM26.2792 9.06C25.6232 9.06 25.0472 8.924 24.5512 8.652C24.0552 8.372 23.6672 7.992 23.3872 7.512C23.1072 7.024 22.9672 6.468 22.9672 5.844C22.9672 5.22 23.0992 4.668 23.3632 4.188C23.6352 3.708 24.0032 3.332 24.4672 3.06C24.9392 2.78 25.4672 2.64 26.0512 2.64C26.6432 2.64 27.1672 2.776 27.6232 3.048C28.0872 3.312 28.4512 3.688 28.7152 4.176C28.9792 4.656 29.1112 5.212 29.1112 5.844C29.1112 5.884 29.1072 5.928 29.0992 5.976C29.0992 6.016 29.0992 6.06 29.0992 6.108H23.6152V5.472H28.6432L28.3072 5.724C28.3072 5.268 28.2072 4.864 28.0072 4.512C27.8152 4.152 27.5512 3.872 27.2152 3.672C26.8792 3.472 26.4912 3.372 26.0512 3.372C25.6192 3.372 25.2312 3.472 24.8872 3.672C24.5432 3.872 24.2752 4.152 24.0832 4.512C23.8912 4.872 23.7952 5.284 23.7952 5.748V5.88C23.7952 6.36 23.8992 6.784 24.1072 7.152C24.3232 7.512 24.6192 7.796 24.9952 8.004C25.3792 8.204 25.8152 8.304 26.3032 8.304C26.6872 8.304 27.0432 8.236 27.3712 8.1C27.7072 7.964 27.9952 7.756 28.2352 7.476L28.7152 8.028C28.4352 8.364 28.0832 8.62 27.6592 8.796C27.2432 8.972 26.7832 9.06 26.2792 9.06ZM34.2492 9.06C33.7052 9.06 33.2132 8.936 32.7732 8.688C32.3332 8.432 31.9812 8.068 31.7172 7.596C31.4612 7.116 31.3332 6.532 31.3332 5.844C31.3332 5.156 31.4612 4.576 31.7172 4.104C31.9732 3.624 32.3212 3.26 32.7612 3.012C33.2012 2.764 33.6972 2.64 34.2492 2.64C34.8492 2.64 35.3852 2.776 35.8572 3.048C36.3372 3.312 36.7132 3.688 36.9852 4.176C37.2572 4.656 37.3932 5.212 37.3932 5.844C37.3932 6.484 37.2572 7.044 36.9852 7.524C36.7132 8.004 36.3372 8.38 35.8572 8.652C35.3852 8.924 34.8492 9.06 34.2492 9.06ZM30.9972 11.328V2.7H31.8132V4.596L31.7292 5.856L31.8492 7.128V11.328H30.9972ZM34.1892 8.304C34.6372 8.304 35.0372 8.204 35.3892 8.004C35.7412 7.796 36.0212 7.508 36.2292 7.14C36.4372 6.764 36.5412 6.332 36.5412 5.844C36.5412 5.356 36.4372 4.928 36.2292 4.56C36.0212 4.192 35.7412 3.904 35.3892 3.696C35.0372 3.488 34.6372 3.384 34.1892 3.384C33.7412 3.384 33.3372 3.488 32.9772 3.696C32.6252 3.904 32.3452 4.192 32.1372 4.56C31.9372 4.928 31.8372 5.356 31.8372 5.844C31.8372 6.332 31.9372 6.764 32.1372 7.14C32.3452 7.508 32.6252 7.796 32.9772 8.004C33.3372 8.204 33.7412 8.304 34.1892 8.304ZM39.2237 9V2.7H40.0757V5.484H44.0477V2.7H44.8997V9H44.0477V6.216H40.0757V9H39.2237ZM50.0214 9.06C49.3654 9.06 48.7894 8.924 48.2934 8.652C47.7974 8.372 47.4094 7.992 47.1294 7.512C46.8494 7.024 46.7094 6.468 46.7094 5.844C46.7094 5.22 46.8414 4.668 47.1054 4.188C47.3774 3.708 47.7454 3.332 48.2094 3.06C48.6814 2.78 49.2094 2.64 49.7934 2.64C50.3854 2.64 50.9094 2.776 51.3654 3.048C51.8294 3.312 52.1934 3.688 52.4574 4.176C52.7214 4.656 52.8534 5.212 52.8534 5.844C52.8534 5.884 52.8494 5.928 52.8414 5.976C52.8414 6.016 52.8414 6.06 52.8414 6.108H47.3574V5.472H52.3854L52.0494 5.724C52.0494 5.268 51.9494 4.864 51.7494 4.512C51.5574 4.152 51.2934 3.872 50.9574 3.672C50.6214 3.472 50.2334 3.372 49.7934 3.372C49.3614 3.372 48.9734 3.472 48.6294 3.672C48.2854 3.872 48.0174 4.152 47.8254 4.512C47.6334 4.872 47.5374 5.284 47.5374 5.748V5.88C47.5374 6.36 47.6414 6.784 47.8494 7.152C48.0654 7.512 48.3614 7.796 48.7374 8.004C49.1214 8.204 49.5574 8.304 50.0454 8.304C50.4294 8.304 50.7854 8.236 51.1134 8.1C51.4494 7.964 51.7374 7.756 51.9774 7.476L52.4574 8.028C52.1774 8.364 51.8254 8.62 51.4014 8.796C50.9854 8.972 50.5254 9.06 50.0214 9.06ZM55.6581 9V3.216L55.8741 3.444H53.2701V2.7H58.8981V3.444H56.2941L56.5101 3.216V9H55.6581ZM59.3684 6.12V5.376H62.5124V6.12H59.3684ZM64.4425 9V2.7H65.3065L68.1625 7.536H67.8025L70.7065 2.7H71.4985V9H70.7185V3.672L70.8745 3.744L68.1625 8.232H67.7785L65.0425 3.696L65.2225 3.66V9H64.4425ZM77.8349 9V7.608L77.7989 7.38V5.052C77.7989 4.516 77.6469 4.104 77.3429 3.816C77.0469 3.528 76.6029 3.384 76.0109 3.384C75.6029 3.384 75.2149 3.452 74.8469 3.588C74.4789 3.724 74.1669 3.904 73.9109 4.128L73.5269 3.492C73.8469 3.22 74.2309 3.012 74.6789 2.868C75.1269 2.716 75.5989 2.64 76.0949 2.64C76.9109 2.64 77.5389 2.844 77.9789 3.252C78.4269 3.652 78.6509 4.264 78.6509 5.088V9H77.8349ZM75.6629 9.06C75.1909 9.06 74.7789 8.984 74.4269 8.832C74.0829 8.672 73.8189 8.456 73.6349 8.184C73.4509 7.904 73.3589 7.584 73.3589 7.224C73.3589 6.896 73.4349 6.6 73.5869 6.336C73.7469 6.064 74.0029 5.848 74.3549 5.688C74.7149 5.52 75.1949 5.436 75.7949 5.436H77.9669V6.072H75.8189C75.2109 6.072 74.7869 6.18 74.5469 6.396C74.3149 6.612 74.1989 6.88 74.1989 7.2C74.1989 7.56 74.3389 7.848 74.6189 8.064C74.8989 8.28 75.2909 8.388 75.7949 8.388C76.2749 8.388 76.6869 8.28 77.0309 8.064C77.3829 7.84 77.6389 7.52 77.7989 7.104L77.9909 7.692C77.8309 8.108 77.5509 8.44 77.1509 8.688C76.7589 8.936 76.2629 9.06 75.6629 9.06ZM80.919 9V2.7H85.383V3.444H81.555L81.771 3.228V9H80.919ZM90.5263 9V7.608L90.4903 7.38V5.052C90.4903 4.516 90.3383 4.104 90.0343 3.816C89.7383 3.528 89.2943 3.384 88.7023 3.384C88.2943 3.384 87.9063 3.452 87.5383 3.588C87.1703 3.724 86.8583 3.904 86.6023 4.128L86.2183 3.492C86.5383 3.22 86.9223 3.012 87.3703 2.868C87.8183 2.716 88.2903 2.64 88.7863 2.64C89.6023 2.64 90.2303 2.844 90.6703 3.252C91.1183 3.652 91.3423 4.264 91.3423 5.088V9H90.5263ZM88.3543 9.06C87.8823 9.06 87.4703 8.984 87.1183 8.832C86.7743 8.672 86.5103 8.456 86.3263 8.184C86.1423 7.904 86.0503 7.584 86.0503 7.224C86.0503 6.896 86.1263 6.6 86.2783 6.336C86.4383 6.064 86.6943 5.848 87.0463 5.688C87.4063 5.52 87.8863 5.436 88.4863 5.436H90.6583V6.072H88.5103C87.9023 6.072 87.4783 6.18 87.2383 6.396C87.0063 6.612 86.8903 6.88 86.8903 7.2C86.8903 7.56 87.0303 7.848 87.3103 8.064C87.5903 8.28 87.9823 8.388 88.4863 8.388C88.9663 8.388 89.3783 8.28 89.7223 8.064C90.0743 7.84 90.3303 7.52 90.4903 7.104L90.6823 7.692C90.5223 8.108 90.2423 8.44 89.8423 8.688C89.4503 8.936 88.9543 9.06 88.3543 9.06ZM95.1735 9.072C94.7175 9.072 94.2655 9.008 93.8175 8.88C93.3695 8.752 92.9735 8.556 92.6295 8.292L92.9055 7.656C93.2095 7.88 93.5615 8.052 93.9615 8.172C94.3615 8.284 94.7575 8.34 95.1495 8.34C95.5415 8.332 95.8815 8.276 96.1695 8.172C96.4575 8.068 96.6815 7.924 96.8415 7.74C97.0015 7.556 97.0815 7.348 97.0815 7.116C97.0815 6.78 96.9295 6.52 96.6255 6.336C96.3215 6.144 95.9055 6.048 95.3775 6.048H94.2975V5.424H95.3175C95.6295 5.424 95.9055 5.384 96.1455 5.304C96.3855 5.224 96.5695 5.108 96.6975 4.956C96.8335 4.804 96.9015 4.624 96.9015 4.416C96.9015 4.192 96.8215 4 96.6615 3.84C96.5095 3.68 96.2975 3.56 96.0255 3.48C95.7535 3.4 95.4455 3.36 95.1015 3.36C94.7895 3.368 94.4655 3.416 94.1295 3.504C93.7935 3.584 93.4615 3.708 93.1335 3.876L92.8935 3.216C93.2615 3.024 93.6255 2.88 93.9855 2.784C94.3535 2.68 94.7215 2.628 95.0895 2.628C95.5935 2.612 96.0455 2.672 96.4455 2.808C96.8535 2.944 97.1775 3.14 97.4175 3.396C97.6575 3.644 97.7775 3.944 97.7775 4.296C97.7775 4.608 97.6815 4.88 97.4895 5.112C97.2975 5.344 97.0415 5.524 96.7215 5.652C96.4015 5.78 96.0375 5.844 95.6295 5.844L95.6655 5.616C96.3855 5.616 96.9455 5.756 97.3455 6.036C97.7535 6.316 97.9575 6.696 97.9575 7.176C97.9575 7.552 97.8335 7.884 97.5855 8.172C97.3375 8.452 97.0015 8.672 96.5775 8.832C96.1615 8.992 95.6935 9.072 95.1735 9.072ZM99.8917 9V2.7H100.744V7.704L104.956 2.7H105.712V9H104.86V3.984L100.66 9H99.8917ZM108.153 9V2.7H109.005V5.484H112.977V2.7H113.829V9H112.977V6.216H109.005V9H108.153ZM4.832 25L2.24 21.88L2.948 21.46L5.84 25H4.832ZM0.212 25V18.7H1.064V25H0.212ZM0.8 22.192V21.46H2.828V22.192H0.8ZM3.02 21.94L2.228 21.82L4.736 18.7H5.66L3.02 21.94ZM9.554 25.06C8.946 25.06 8.398 24.924 7.91 24.652C7.43 24.372 7.05 23.992 6.77 23.512C6.49 23.024 6.35 22.468 6.35 21.844C6.35 21.212 6.49 20.656 6.77 20.176C7.05 19.696 7.43 19.32 7.91 19.048C8.39 18.776 8.938 18.64 9.554 18.64C10.178 18.64 10.73 18.776 11.21 19.048C11.698 19.32 12.078 19.696 12.35 20.176C12.63 20.656 12.77 21.212 12.77 21.844C12.77 22.468 12.63 23.024 12.35 23.512C12.078 23.992 11.698 24.372 11.21 24.652C10.722 24.924 10.17 25.06 9.554 25.06ZM9.554 24.304C10.01 24.304 10.414 24.204 10.766 24.004C11.118 23.796 11.394 23.508 11.594 23.14C11.802 22.764 11.906 22.332 11.906 21.844C11.906 21.348 11.802 20.916 11.594 20.548C11.394 20.18 11.118 19.896 10.766 19.696C10.414 19.488 10.014 19.384 9.566 19.384C9.118 19.384 8.718 19.488 8.366 19.696C8.014 19.896 7.734 20.18 7.526 20.548C7.318 20.916 7.214 21.348 7.214 21.844C7.214 22.332 7.318 22.764 7.526 23.14C7.734 23.508 8.014 23.796 8.366 24.004C8.718 24.204 9.114 24.304 9.554 24.304ZM18.1309 25.072C18.1309 25.072 18.1149 25.072 18.0829 25.072C18.0509 25.072 18.0189 25.072 17.9869 25.072C17.9629 25.072 17.9429 25.072 17.9269 25.072C16.6789 25.064 15.7069 24.78 15.0109 24.22C14.3149 23.66 13.9669 22.864 13.9669 21.832C13.9669 20.816 14.3149 20.032 15.0109 19.48C15.7149 18.92 16.7029 18.636 17.9749 18.628C17.9829 18.628 17.9989 18.628 18.0229 18.628C18.0549 18.628 18.0829 18.628 18.1069 18.628C18.1309 18.628 18.1469 18.628 18.1549 18.628C19.4349 18.636 20.4309 18.92 21.1429 19.48C21.8549 20.032 22.2109 20.816 22.2109 21.832C22.2109 22.872 21.8509 23.672 21.1309 24.232C20.4189 24.792 19.4189 25.072 18.1309 25.072ZM18.1189 24.328C18.8309 24.328 19.4269 24.232 19.9069 24.04C20.3869 23.84 20.7509 23.556 20.9989 23.188C21.2469 22.82 21.3709 22.368 21.3709 21.832C21.3709 21.312 21.2469 20.872 20.9989 20.512C20.7509 20.144 20.3869 19.864 19.9069 19.672C19.4269 19.48 18.8309 19.384 18.1189 19.384C18.1109 19.384 18.0869 19.384 18.0469 19.384C18.0149 19.384 17.9949 19.384 17.9869 19.384C17.2909 19.384 16.7069 19.484 16.2349 19.684C15.7629 19.876 15.4069 20.152 15.1669 20.512C14.9269 20.872 14.8069 21.312 14.8069 21.832C14.8069 22.36 14.9269 22.808 15.1669 23.176C15.4149 23.544 15.7749 23.828 16.2469 24.028C16.7189 24.22 17.2989 24.32 17.9869 24.328C18.0029 24.328 18.0269 24.328 18.0589 24.328C18.0909 24.328 18.1109 24.328 18.1189 24.328ZM17.6629 27.328V16.096H18.4909V27.328H17.6629ZM26.7128 25.06C26.0568 25.06 25.4808 24.924 24.9848 24.652C24.4888 24.372 24.1008 23.992 23.8208 23.512C23.5408 23.024 23.4008 22.468 23.4008 21.844C23.4008 21.22 23.5328 20.668 23.7968 20.188C24.0688 19.708 24.4368 19.332 24.9008 19.06C25.3728 18.78 25.9008 18.64 26.4848 18.64C27.0768 18.64 27.6008 18.776 28.0568 19.048C28.5208 19.312 28.8848 19.688 29.1488 20.176C29.4128 20.656 29.5448 21.212 29.5448 21.844C29.5448 21.884 29.5408 21.928 29.5328 21.976C29.5328 22.016 29.5328 22.06 29.5328 22.108H24.0488V21.472H29.0768L28.7408 21.724C28.7408 21.268 28.6408 20.864 28.4408 20.512C28.2488 20.152 27.9848 19.872 27.6488 19.672C27.3128 19.472 26.9248 19.372 26.4848 19.372C26.0528 19.372 25.6648 19.472 25.3208 19.672C24.9768 19.872 24.7088 20.152 24.5168 20.512C24.3248 20.872 24.2288 21.284 24.2288 21.748V21.88C24.2288 22.36 24.3328 22.784 24.5408 23.152C24.7568 23.512 25.0528 23.796 25.4288 24.004C25.8128 24.204 26.2488 24.304 26.7368 24.304C27.1208 24.304 27.4768 24.236 27.8048 24.1C28.1408 23.964 28.4288 23.756 28.6688 23.476L29.1488 24.028C28.8688 24.364 28.5168 24.62 28.0928 24.796C27.6768 24.972 27.2168 25.06 26.7128 25.06ZM31.4308 25V18.7H32.2828V23.704L36.4948 18.7H37.2508V25H36.3988V19.984L32.1988 25H31.4308ZM34.2868 17.788C33.7588 17.788 33.3308 17.656 33.0028 17.392C32.6828 17.12 32.5148 16.732 32.4988 16.228H33.1108C33.1188 16.548 33.2308 16.8 33.4468 16.984C33.6628 17.168 33.9428 17.26 34.2868 17.26C34.6308 17.26 34.9108 17.168 35.1268 16.984C35.3508 16.8 35.4668 16.548 35.4748 16.228H36.0868C36.0788 16.732 35.9108 17.12 35.5828 17.392C35.2548 17.656 34.8228 17.788 34.2868 17.788ZM39.6925 25V18.7H40.5445V21.484H44.5165V18.7H45.3685V25H44.5165V22.216H40.5445V25H39.6925ZM53.9341 25V18.7H54.7861V25H53.9341ZM50.4421 20.92C51.2341 20.928 51.8381 21.104 52.2541 21.448C52.6701 21.792 52.8781 22.288 52.8781 22.936C52.8781 23.608 52.6541 24.124 52.2061 24.484C51.7581 24.844 51.1181 25.02 50.2861 25.012L47.7901 25V18.7H48.6421V20.896L50.4421 20.92ZM50.2261 24.364C50.8181 24.372 51.2621 24.256 51.5581 24.016C51.8621 23.768 52.0141 23.408 52.0141 22.936C52.0141 22.464 51.8661 22.12 51.5701 21.904C51.2741 21.68 50.8261 21.564 50.2261 21.556L48.6421 21.532V24.34L50.2261 24.364ZM56.18 25L58.844 21.544L58.832 21.964L56.3 18.7H57.26L59.336 21.4L58.976 21.388L61.052 18.7H61.988L59.432 22L59.444 21.544L62.132 25H61.16L58.964 22.12L59.3 22.168L57.14 25H56.18ZM66.669 25V18.7H67.521V21.484H71.493V18.7H72.345V25H71.493V22.216H67.521V25H66.669ZM78.6787 25V23.608L78.6427 23.38V21.052C78.6427 20.516 78.4907 20.104 78.1867 19.816C77.8907 19.528 77.4467 19.384 76.8547 19.384C76.4467 19.384 76.0587 19.452 75.6907 19.588C75.3227 19.724 75.0107 19.904 74.7547 20.128L74.3707 19.492C74.6907 19.22 75.0747 19.012 75.5227 18.868C75.9707 18.716 76.4427 18.64 76.9387 18.64C77.7547 18.64 78.3827 18.844 78.8227 19.252C79.2707 19.652 79.4947 20.264 79.4947 21.088V25H78.6787ZM76.5067 25.06C76.0347 25.06 75.6227 24.984 75.2707 24.832C74.9267 24.672 74.6627 24.456 74.4787 24.184C74.2947 23.904 74.2027 23.584 74.2027 23.224C74.2027 22.896 74.2787 22.6 74.4307 22.336C74.5907 22.064 74.8467 21.848 75.1987 21.688C75.5587 21.52 76.0387 21.436 76.6387 21.436H78.8107V22.072H76.6627C76.0547 22.072 75.6307 22.18 75.3907 22.396C75.1587 22.612 75.0427 22.88 75.0427 23.2C75.0427 23.56 75.1827 23.848 75.4627 24.064C75.7427 24.28 76.1347 24.388 76.6387 24.388C77.1187 24.388 77.5307 24.28 77.8747 24.064C78.2267 23.84 78.4827 23.52 78.6427 23.104L78.8347 23.692C78.6747 24.108 78.3947 24.44 77.9947 24.688C77.6027 24.936 77.1067 25.06 76.5067 25.06ZM81.7628 25V18.7H87.4268V25H86.5748V19.216L86.7908 19.444H82.3988L82.6148 19.216V25H81.7628ZM89.8487 25V18.7H90.7007V23.704L94.9127 18.7H95.6687V25H94.8167V19.984L90.6167 25H89.8487ZM99.3104 25V19.216L99.5264 19.444H96.9224V18.7H102.55V19.444H99.9464L100.162 19.216V25H99.3104ZM108.402 25L105.81 21.88L106.518 21.46L109.41 25H108.402ZM103.782 25V18.7H104.634V25H103.782ZM104.37 22.192V21.46H106.398V22.192H104.37ZM106.59 21.94L105.798 21.82L108.306 18.7H109.23L106.59 21.94ZM113.124 25.06C112.516 25.06 111.968 24.924 111.48 24.652C111 24.372 110.62 23.992 110.34 23.512C110.06 23.024 109.92 22.468 109.92 21.844C109.92 21.212 110.06 20.656 110.34 20.176C110.62 19.696 111 19.32 111.48 19.048C111.96 18.776 112.508 18.64 113.124 18.64C113.748 18.64 114.3 18.776 114.78 19.048C115.268 19.32 115.648 19.696 115.92 20.176C116.2 20.656 116.34 21.212 116.34 21.844C116.34 22.468 116.2 23.024 115.92 23.512C115.648 23.992 115.268 24.372 114.78 24.652C114.292 24.924 113.74 25.06 113.124 25.06ZM113.124 24.304C113.58 24.304 113.984 24.204 114.336 24.004C114.688 23.796 114.964 23.508 115.164 23.14C115.372 22.764 115.476 22.332 115.476 21.844C115.476 21.348 115.372 20.916 115.164 20.548C114.964 20.18 114.688 19.896 114.336 19.696C113.984 19.488 113.584 19.384 113.136 19.384C112.688 19.384 112.288 19.488 111.936 19.696C111.584 19.896 111.304 20.18 111.096 20.548C110.888 20.916 110.784 21.348 110.784 21.844C110.784 22.332 110.888 22.764 111.096 23.14C111.304 23.508 111.584 23.796 111.936 24.004C112.288 24.204 112.684 24.304 113.124 24.304ZM118.161 25V18.7H120.945C121.657 18.7 122.217 18.836 122.625 19.108C123.041 19.38 123.249 19.78 123.249 20.308C123.249 20.82 123.053 21.216 122.661 21.496C122.269 21.768 121.753 21.904 121.113 21.904L121.281 21.652C122.033 21.652 122.585 21.792 122.937 22.072C123.289 22.352 123.465 22.756 123.465 23.284C123.465 23.828 123.265 24.252 122.865 24.556C122.473 24.852 121.861 25 121.029 25H118.161ZM118.989 24.328H120.993C121.529 24.328 121.933 24.244 122.205 24.076C122.485 23.9 122.625 23.62 122.625 23.236C122.625 22.852 122.501 22.572 122.253 22.396C122.005 22.22 121.613 22.132 121.077 22.132H118.989V24.328ZM118.989 21.496H120.885C121.373 21.496 121.745 21.404 122.001 21.22C122.265 21.036 122.397 20.768 122.397 20.416C122.397 20.064 122.265 19.8 122.001 19.624C121.745 19.448 121.373 19.36 120.885 19.36H118.989V21.496Z" fill="#333333"/>
</svg>
