<svg width="72" height="16" viewBox="0 0 72 16" fill="none" xmlns="http://www.w3.org/2000/svg">
<rect width="72" height="16" fill="white"/>
<path fill-rule="evenodd" clip-rule="evenodd" d="M10.6667 4C10.6667 5.47276 9.47276 6.66667 8 6.66667C6.52724 6.66667 5.33333 5.47276 5.33333 4C5.33333 2.52724 6.52724 1.33333 8 1.33333C9.47276 1.33333 10.6667 2.52724 10.6667 4ZM12 4C12 6.20914 10.2091 8 8 8C5.79086 8 4 6.20914 4 4C4 1.79086 5.79086 0 8 0C10.2091 0 12 1.79086 12 4ZM3.19673 12.3102C4.43611 11.2774 6.1613 10.6667 8 10.6667C9.8387 10.6667 11.5639 11.2774 12.8033 12.3102C14.0354 13.337 14.6667 14.6719 14.6667 16H16C16 14.2321 15.1573 12.5363 13.6569 11.286C12.1566 10.0357 10.1218 9.33333 8 9.33333C5.87821 9.33333 3.8434 10.0357 2.34315 11.286C0.842686 12.5363 0 14.2321 0 16L1.33333 16C1.33333 14.6719 1.96465 13.337 3.19673 12.3102Z" fill="#333333"/>
<path d="M25.308 12V3.6H28.92C29.832 3.6 30.548 3.784 31.068 4.152C31.588 4.52 31.848 5.056 31.848 5.76C31.848 6.448 31.6 6.976 31.104 7.344C30.608 7.704 29.956 7.884 29.148 7.884L29.364 7.524C30.3 7.524 31.016 7.712 31.512 8.088C32.016 8.456 32.268 8.996 32.268 9.708C32.268 10.428 32.004 10.992 31.476 11.4C30.956 11.8 30.18 12 29.148 12H25.308ZM26.496 11.052H29.124C29.764 11.052 30.244 10.936 30.564 10.704C30.892 10.464 31.056 10.1 31.056 9.612C31.056 9.124 30.892 8.768 30.564 8.544C30.244 8.32 29.764 8.208 29.124 8.208H26.496V11.052ZM26.496 7.296H28.836C29.42 7.296 29.864 7.18 30.168 6.948C30.48 6.716 30.636 6.376 30.636 5.928C30.636 5.472 30.48 5.128 30.168 4.896C29.864 4.664 29.42 4.548 28.836 4.548H26.496V7.296ZM38.2928 12.096C37.6528 12.096 37.0568 11.988 36.5048 11.772C35.9608 11.556 35.4888 11.256 35.0888 10.872C34.6888 10.48 34.3768 10.024 34.1528 9.504C33.9288 8.984 33.8168 8.416 33.8168 7.8C33.8168 7.184 33.9288 6.616 34.1528 6.096C34.3768 5.576 34.6888 5.124 35.0888 4.74C35.4888 4.348 35.9608 4.044 36.5048 3.828C37.0488 3.612 37.6448 3.504 38.2928 3.504C38.9328 3.504 39.5208 3.612 40.0568 3.828C40.6008 4.036 41.0728 4.336 41.4728 4.728C41.8808 5.112 42.1928 5.564 42.4088 6.084C42.6328 6.604 42.7448 7.176 42.7448 7.8C42.7448 8.424 42.6328 8.996 42.4088 9.516C42.1928 10.036 41.8808 10.492 41.4728 10.884C41.0728 11.268 40.6008 11.568 40.0568 11.784C39.5208 11.992 38.9328 12.096 38.2928 12.096ZM38.2928 11.028C38.7568 11.028 39.1848 10.948 39.5768 10.788C39.9768 10.628 40.3208 10.404 40.6088 10.116C40.9048 9.82 41.1328 9.476 41.2928 9.084C41.4608 8.692 41.5448 8.264 41.5448 7.8C41.5448 7.336 41.4608 6.908 41.2928 6.516C41.1328 6.124 40.9048 5.784 40.6088 5.496C40.3208 5.2 39.9768 4.972 39.5768 4.812C39.1848 4.652 38.7568 4.572 38.2928 4.572C37.8208 4.572 37.3848 4.652 36.9848 4.812C36.5928 4.972 36.2488 5.2 35.9528 5.496C35.6568 5.784 35.4248 6.124 35.2568 6.516C35.0968 6.908 35.0168 7.336 35.0168 7.8C35.0168 8.264 35.0968 8.692 35.2568 9.084C35.4248 9.476 35.6568 9.82 35.9528 10.116C36.2488 10.404 36.5928 10.628 36.9848 10.788C37.3848 10.948 37.8208 11.028 38.2928 11.028ZM44.9247 12V3.6H46.1127V10.08L51.0807 3.6H52.1847V12H51.0087V5.532L46.0287 12H44.9247ZM48.5367 3.012C47.8807 3.012 47.3727 2.868 47.0127 2.58C46.6607 2.292 46.4807 1.888 46.4727 1.368H47.3247C47.3327 1.68 47.4447 1.924 47.6607 2.1C47.8767 2.268 48.1687 2.352 48.5367 2.352C48.8967 2.352 49.1847 2.268 49.4007 2.1C49.6247 1.924 49.7407 1.68 49.7487 1.368H50.5887C50.5807 1.888 50.3967 2.292 50.0367 2.58C49.6847 2.868 49.1847 3.012 48.5367 3.012ZM56.7596 12V4.332L57.0596 4.644H53.8916V3.6H60.8156V4.644H57.6476L57.9356 4.332V12H56.7596ZM62.5141 12V3.6H63.7021V10.08L68.6701 3.6H69.7741V12H68.5981V5.532L63.6181 12H62.5141Z" fill="#333333"/>
</svg>
