<svg width="89" height="16" viewBox="0 0 89 16" fill="none" xmlns="http://www.w3.org/2000/svg">
<rect width="89" height="16" fill="white"/>
<path fill-rule="evenodd" clip-rule="evenodd" d="M5.66091 3.87546L5.89351 6.66667H10.1065L10.3391 3.87546C10.4531 2.50699 9.37321 1.33333 8 1.33333C6.62679 1.33333 5.54687 2.50699 5.66091 3.87546ZM11.4444 6.66667L11.6678 3.98618C11.8466 1.84036 10.1533 0 8 0C5.84674 0 4.15336 1.84036 4.33218 3.98618L4.55556 6.66667H1.34687H0L0.190476 8L1.00626 13.7105C1.19393 15.0242 2.31905 16 3.64612 16H12.3539C13.6809 16 14.8061 15.0242 14.9937 13.7105L15.8095 8L16 6.66667H14.6531H11.4444ZM11.3333 8H11.2801L11.0579 10.6667H14.0817L14.4627 8H11.3333ZM9.94213 8H6.05787L6.28009 10.6667H9.71991L9.94213 8ZM4.71991 8H4.66667H1.53735L1.9183 10.6667H4.94213L4.71991 8ZM6.61342 14.6667L6.3912 12H9.6088L9.38658 14.6667H6.61342ZM10.9468 12L10.7245 14.6667H12.3539C13.0174 14.6667 13.58 14.1788 13.6738 13.5219L13.8912 12H10.9468ZM5.05324 12L5.27547 14.6667H3.64612C2.98259 14.6667 2.42003 14.1788 2.32619 13.5219L2.10877 12H5.05324Z" fill="#333333"/>
<path d="M30.96 12L27.912 7.86L28.884 7.26L32.328 12H30.96ZM25.308 12V3.6H26.484V12H25.308ZM26.124 8.304V7.248H28.848V8.304H26.124ZM28.992 7.932L27.888 7.764L30.9 3.6H32.184L28.992 7.932ZM37.5546 12.096C36.9146 12.096 36.3186 11.988 35.7666 11.772C35.2226 11.556 34.7506 11.256 34.3506 10.872C33.9506 10.48 33.6386 10.024 33.4146 9.504C33.1906 8.984 33.0786 8.416 33.0786 7.8C33.0786 7.184 33.1906 6.616 33.4146 6.096C33.6386 5.576 33.9506 5.124 34.3506 4.74C34.7506 4.348 35.2226 4.044 35.7666 3.828C36.3106 3.612 36.9066 3.504 37.5546 3.504C38.1946 3.504 38.7826 3.612 39.3186 3.828C39.8626 4.036 40.3346 4.336 40.7346 4.728C41.1426 5.112 41.4546 5.564 41.6706 6.084C41.8946 6.604 42.0066 7.176 42.0066 7.8C42.0066 8.424 41.8946 8.996 41.6706 9.516C41.4546 10.036 41.1426 10.492 40.7346 10.884C40.3346 11.268 39.8626 11.568 39.3186 11.784C38.7826 11.992 38.1946 12.096 37.5546 12.096ZM37.5546 11.028C38.0186 11.028 38.4466 10.948 38.8386 10.788C39.2386 10.628 39.5826 10.404 39.8706 10.116C40.1666 9.82 40.3946 9.476 40.5546 9.084C40.7226 8.692 40.8066 8.264 40.8066 7.8C40.8066 7.336 40.7226 6.908 40.5546 6.516C40.3946 6.124 40.1666 5.784 39.8706 5.496C39.5826 5.2 39.2386 4.972 38.8386 4.812C38.4466 4.652 38.0186 4.572 37.5546 4.572C37.0826 4.572 36.6466 4.652 36.2466 4.812C35.8546 4.972 35.5106 5.2 35.2146 5.496C34.9186 5.784 34.6866 6.124 34.5186 6.516C34.3586 6.908 34.2786 7.336 34.2786 7.8C34.2786 8.264 34.3586 8.692 34.5186 9.084C34.6866 9.476 34.9186 9.82 35.2146 10.116C35.5106 10.404 35.8546 10.628 36.2466 10.788C36.6466 10.948 37.0826 11.028 37.5546 11.028ZM44.1864 12V3.6H47.4624C48.1984 3.6 48.8264 3.716 49.3464 3.948C49.8664 4.18 50.2664 4.516 50.5464 4.956C50.8264 5.396 50.9664 5.92 50.9664 6.528C50.9664 7.136 50.8264 7.66 50.5464 8.1C50.2664 8.532 49.8664 8.868 49.3464 9.108C48.8264 9.34 48.1984 9.456 47.4624 9.456H44.8464L45.3864 8.892V12H44.1864ZM45.3864 9.012L44.8464 8.412H47.4264C48.1944 8.412 48.7744 8.248 49.1664 7.92C49.5664 7.592 49.7664 7.128 49.7664 6.528C49.7664 5.928 49.5664 5.464 49.1664 5.136C48.7744 4.808 48.1944 4.644 47.4264 4.644H44.8464L45.3864 4.044V9.012ZM51.8579 11.088L52.2779 10.2C52.6459 10.488 53.0499 10.704 53.4899 10.848C53.9379 10.992 54.3819 11.068 54.8219 11.076C55.2619 11.076 55.6659 11.016 56.0339 10.896C56.4099 10.776 56.7099 10.596 56.9339 10.356C57.1579 10.116 57.2699 9.82 57.2699 9.468C57.2699 9.036 57.0939 8.708 56.7419 8.484C56.3979 8.26 55.9179 8.148 55.3019 8.148H53.4299V7.176H55.2179C55.7539 7.176 56.1699 7.068 56.4659 6.852C56.7699 6.628 56.9219 6.32 56.9219 5.928C56.9219 5.632 56.8299 5.384 56.6459 5.184C56.4699 4.976 56.2259 4.82 55.9139 4.716C55.6099 4.612 55.2619 4.56 54.8699 4.56C54.4859 4.552 54.0899 4.604 53.6819 4.716C53.2739 4.82 52.8819 4.988 52.5059 5.22L52.1219 4.236C52.6339 3.948 53.1659 3.748 53.7179 3.636C54.2779 3.516 54.8179 3.48 55.3379 3.528C55.8579 3.568 56.3259 3.688 56.7419 3.888C57.1659 4.08 57.5019 4.336 57.7499 4.656C58.0059 4.968 58.1339 5.344 58.1339 5.784C58.1339 6.184 58.0299 6.54 57.8219 6.852C57.6139 7.156 57.3259 7.392 56.9579 7.56C56.5899 7.72 56.1619 7.8 55.6739 7.8L55.7219 7.476C56.2819 7.476 56.7659 7.568 57.1739 7.752C57.5899 7.928 57.9099 8.18 58.1339 8.508C58.3659 8.836 58.4819 9.216 58.4819 9.648C58.4819 10.056 58.3779 10.42 58.1699 10.74C57.9619 11.052 57.6779 11.316 57.3179 11.532C56.9659 11.74 56.5619 11.892 56.1059 11.988C55.6579 12.084 55.1859 12.116 54.6899 12.084C54.1939 12.052 53.7019 11.956 53.2139 11.796C52.7339 11.636 52.2819 11.4 51.8579 11.088ZM60.7211 12V3.6H61.9091V10.08L66.8771 3.6H67.9811V12H66.8051V5.532L61.8251 12H60.7211ZM76.864 3.6H78.064V12H76.864V3.6ZM72.04 12H70.84V3.6H72.04V12ZM76.972 8.256H71.92V7.212H76.972V8.256ZM79.7598 12L83.5638 3.6H84.7518L88.5678 12H87.3078L83.9118 4.272H84.3918L80.9958 12H79.7598ZM81.3798 9.9L81.7038 8.94H86.4318L86.7798 9.9H81.3798Z" fill="#333333"/>
</svg>
